<?xml version="1.0" encoding="UTF-8" standalone="no"?>
<!-- Created with Inkscape (http://www.inkscape.org/) -->

<svg
   width="155.37274"
   height="134.61914"
   viewBox="0 0 41.109037 35.617982"
   version="1.1"
   id="svg1"
   xml:space="preserve"
   xmlns:xlink="http://www.w3.org/1999/xlink"
   xmlns="http://www.w3.org/2000/svg"
   xmlns:svg="http://www.w3.org/2000/svg"><defs
     id="defs1"><rect
       x="235.07536"
       y="127.97003"
       width="100.15046"
       height="84.849693"
       id="rect227" /><linearGradient
       id="linearGradient204"><stop
         style="stop-color:#e1e1e1;stop-opacity:1;"
         offset="0"
         id="stop204" /><stop
         style="stop-color:#c4cdd9;stop-opacity:1;"
         offset="0.15060242"
         id="stop241" /><stop
         style="stop-color:#acb4c7;stop-opacity:1;"
         offset="0.40963855"
         id="stop205" /></linearGradient><linearGradient
       id="swatch163"><stop
         style="stop-color:#ffffff;stop-opacity:1;"
         offset="0"
         id="stop163" /></linearGradient><linearGradient
       xlink:href="#linearGradient204"
       id="linearGradient205"
       x1="65.469864"
       y1="30.018932"
       x2="91.34063"
       y2="61.966675"
       gradientUnits="userSpaceOnUse"
       gradientTransform="translate(-57.850733,-28.183809)" /></defs><path
     id="path694-3"
     style="display:inline;fill:url(#linearGradient205);fill-opacity:1;fill-rule:nonzero;stroke-width:0.0562248"
     d="M 8.0000289,5.4488517e-7 C 3.5680289,5.4488517e-7 -1.7366492e-7,3.5680296 -1.7366492e-7,8.0000296 V 27.617953 c 0,4.432 3.56802907366492,8.000028 8.00002907366492,8.000028 H 27.617952 c 4.432,0 8.000028,-3.568028 8.000028,-8.000028 v -7.314799 c 0.07622,-0.530757 0.265304,-1.078895 0.715719,-1.163753 0.237522,0.0067 0.47823,0.05447 0.697632,0.145727 0.694979,0.289046 0.548164,1.369217 1.88619,1.241785 1.338013,-0.127427 2.091373,-1.049542 2.186946,-2.769857 0.09557,-1.72031 -1.327184,-2.677873 -2.346627,-2.677873 -1.019447,0 -1.135395,0.847728 -1.78387,1.114661 -0.220376,0.09071 -0.466888,0.219697 -0.697115,0.15813 C 35.865992,16.2421 35.690529,15.742206 35.61798,15.257984 V 8.0000296 c 0,-4.432 -3.568028,-8.00002905511484 -8.000028,-8.00002905511484 z" /><path
     style="fill:#4793af;fill-opacity:1;stroke-width:0.184861"
     d="m 17.639784,29.885593 c -0.812399,-0.235452 -0.947149,-0.599552 -0.947149,-2.559228 0,-1.76724 0.0049,-1.789509 0.376796,-1.789509 0.378435,0 0.378416,-7.7e-5 0.405779,1.760507 0.02447,1.573649 0.02447,1.573649 0.184188,1.716283 0.273095,0.243859 8.34049,0.220639 8.608314,-0.02478 0.182696,-0.167413 0.182696,-0.167413 0.196288,-4.173888 0.01498,-4.408222 0.02188,-4.296068 -0.277606,-4.497602 -0.184724,-0.124307 -8.368803,-0.184212 -8.368803,-0.06125 0,0.02782 0.110081,0.306579 0.244628,0.619465 0.29557,0.687326 0.381814,0.656661 -0.635922,0.226107 -0.470769,-0.199161 -1.120062,-0.473895 -1.442877,-0.610521 -0.322809,-0.136625 -0.685976,-0.288108 -0.807036,-0.336627 -0.602641,-0.241542 -0.761346,-0.329819 -0.660295,-0.367288 0.05381,-0.01995 0.394955,-0.162092 0.758122,-0.315872 0.677864,-0.287035 1.391178,-0.587406 2.420151,-1.0191 0.703334,-0.295073 0.657823,-0.336842 0.36734,0.337127 -0.132797,0.308101 -0.242046,0.587695 -0.242779,0.621321 -0.0012,0.04845 0.872148,0.06114 4.206598,0.06114 5.842738,0 5.190363,-0.667776 5.171827,5.293897 -0.01812,5.820371 0.641242,5.175014 -5.28065,5.168679 -2.312659,-0.0025 -4.190911,-0.02393 -4.276914,-0.04886 z m 3.112475,-3.58354 c 0,-0.0096 0.09732,-0.239907 0.216267,-0.511883 0.118951,-0.271975 0.230228,-0.538464 0.247278,-0.592197 0.03082,-0.09706 0.0037,-0.09779 -4.16584,-0.111735 -4.738894,-0.01585 -4.412602,0.01151 -4.829114,-0.404997 -0.393494,-0.393501 -0.370422,-0.09065 -0.370422,-4.861442 0,-4.726733 -0.01695,-4.521202 0.401626,-4.873398 0.437895,-0.368464 0.04968,-0.341188 4.856322,-0.341188 4.868608,0 4.462871,-0.03325 4.873502,0.399372 0.364671,0.384202 0.358322,0.348232 0.374651,2.122093 0.01683,1.829453 0.0114,1.856083 -0.381493,1.856083 -0.383422,0 -0.391288,-0.0353 -0.391288,-1.756514 0,-1.640343 3.7e-4,-1.637549 -0.294003,-1.789824 -0.227141,-0.117455 -8.213458,-0.109329 -8.413031,0.0086 -0.279148,0.164899 -0.268163,-0.0153 -0.268163,4.397541 0,4.537878 -0.02238,4.232396 0.322636,4.409692 0.140551,0.07223 8.310181,0.09099 8.310181,0.01908 0,-0.02353 -0.110969,-0.301403 -0.246601,-0.617496 -0.298572,-0.695833 -0.384889,-0.667006 0.662348,-0.221207 0.48422,0.206128 1.337111,0.56794 1.895309,0.804026 1.223892,0.517635 1.238945,0.399076 -0.122922,0.967984 -0.625097,0.261129 -1.477212,0.618792 -1.893594,0.794806 -0.78429,0.331542 -0.783649,0.331295 -0.783649,0.302644 z"
     id="path227" /><text
     xml:space="preserve"
     transform="matrix(0.26458333,0,0,0.26458333,-56.644893,-30.37843)"
     id="text227"
     style="font-style:normal;font-variant:normal;font-weight:normal;font-stretch:normal;font-size:18.6667px;line-height:1.7;font-family:'Tw Cen MT Condensed';-inkscape-font-specification:'Tw Cen MT Condensed, Normal';font-variant-ligatures:normal;font-variant-caps:normal;font-variant-numeric:normal;font-variant-east-asian:normal;text-align:start;writing-mode:lr-tb;direction:ltr;white-space:pre;shape-inside:url(#rect227);display:inline;opacity:1;fill:#dd5746;fill-opacity:1;stroke-width:0.823937;stroke-dasharray:none"><tspan
       x="235.07617"
       y="149.04798"
       id="tspan2"><tspan
         style="fill:#000000"
         id="tspan1">JobSync</tspan></tspan></text></svg>
